<?xml version="1.0" standalone="no"?><svg xmlns="http://www.w3.org/2000/svg" viewBox="0 0 1440 320"><path fill="#2c3e50" fill-opacity="1" d="M0,32L8.6,74.7C17.1,117,34,203,51,245.3C68.6,288,86,288,103,266.7C120,245,137,203,154,181.3C171.4,160,189,160,206,170.7C222.9,181,240,203,257,192C274.3,181,291,139,309,112C325.7,85,343,75,360,96C377.1,117,394,171,411,197.3C428.6,224,446,224,463,229.3C480,235,497,245,514,240C531.4,235,549,213,566,197.3C582.9,181,600,171,617,170.7C634.3,171,651,181,669,197.3C685.7,213,703,235,720,250.7C737.1,267,754,277,771,240C788.6,203,806,117,823,69.3C840,21,857,11,874,10.7C891.4,11,909,21,926,69.3C942.9,117,960,203,977,250.7C994.3,299,1011,309,1029,266.7C1045.7,224,1063,128,1080,80C1097.1,32,1114,32,1131,64C1148.6,96,1166,160,1183,176C1200,192,1217,160,1234,165.3C1251.4,171,1269,213,1286,224C1302.9,235,1320,213,1337,186.7C1354.3,160,1371,128,1389,106.7C1405.7,85,1423,75,1431,69.3L1440,64L1440,320L1431.4,320C1422.9,320,1406,320,1389,320C1371.4,320,1354,320,1337,320C1320,320,1303,320,1286,320C1268.6,320,1251,320,1234,320C1217.1,320,1200,320,1183,320C1165.7,320,1149,320,1131,320C1114.3,320,1097,320,1080,320C1062.9,320,1046,320,1029,320C1011.4,320,994,320,977,320C960,320,943,320,926,320C908.6,320,891,320,874,320C857.1,320,840,320,823,320C805.7,320,789,320,771,320C754.3,320,737,320,720,320C702.9,320,686,320,669,320C651.4,320,634,320,617,320C600,320,583,320,566,320C548.6,320,531,320,514,320C497.1,320,480,320,463,320C445.7,320,429,320,411,320C394.3,320,377,320,360,320C342.9,320,326,320,309,320C291.4,320,274,320,257,320C240,320,223,320,206,320C188.6,320,171,320,154,320C137.1,320,120,320,103,320C85.7,320,69,320,51,320C34.3,320,17,320,9,320L0,320Z"></path></svg>